<svg xmlns="http://www.w3.org/2000/svg" xmlns:xlink="http://www.w3.org/1999/xlink" width="230" zoomAndPan="magnify" viewBox="0 0 172.5 30.000001" height="40" preserveAspectRatio="xMidYMid meet" version="1.0"><defs><g/><clipPath id="0df119ad94"><path d="M 8 3.820312 L 18 3.820312 L 18 13 L 8 13 Z M 8 3.820312 " clip-rule="nonzero"/></clipPath><clipPath id="72a69e4131"><path d="M 16 3.820312 L 24 3.820312 L 24 14 L 16 14 Z M 16 3.820312 " clip-rule="nonzero"/></clipPath><clipPath id="887f05e48b"><path d="M 16 12 L 25.957031 12 L 25.957031 21 L 16 21 Z M 16 12 " clip-rule="nonzero"/></clipPath><clipPath id="50c8b59b72"><path d="M 11 15 L 21 15 L 21 24.140625 L 11 24.140625 Z M 11 15 " clip-rule="nonzero"/></clipPath><clipPath id="4f9bd2e422"><path d="M 5 14 L 14 14 L 14 24.140625 L 5 24.140625 Z M 5 14 " clip-rule="nonzero"/></clipPath><clipPath id="abca6b2ba5"><path d="M 3.457031 7 L 14 7 L 14 16 L 3.457031 16 Z M 3.457031 7 " clip-rule="nonzero"/></clipPath></defs><g fill="#ffffff" fill-opacity="1"><g transform="translate(27.245605, 20.1544)"><g><path d="M 1.484375 0 L 0.5625 -1.1875 L 1.25 -4.359375 L 2.78125 -4.359375 L 2.25 -1.859375 L 2.640625 -1.359375 L 5.890625 -1.359375 L 6.515625 -1.859375 L 8.515625 -11.34375 L 10.0625 -11.34375 L 7.90625 -1.1875 L 6.5 0 Z M 1.484375 0 "/></g></g></g><g fill="#ffffff" fill-opacity="1"><g transform="translate(38.214391, 20.1544)"><g><path d="M 0.75 0 L 2.90625 -10.171875 L 4.3125 -11.34375 L 10.9375 -11.34375 L 11.875 -10.171875 L 9.71875 0 L 8.1875 0 L 9 -3.828125 L 3.09375 -3.828125 L 2.28125 0 Z M 3.390625 -5.1875 L 9.28125 -5.1875 L 10.1875 -9.484375 L 9.765625 -9.984375 L 4.890625 -9.984375 L 4.296875 -9.484375 Z M 3.390625 -5.1875 "/></g></g></g><g fill="#ffffff" fill-opacity="1"><g transform="translate(51.224587, 20.1544)"><g><path d="M 1.65625 0 L 0.734375 -1.1875 L 2.640625 -10.171875 L 4.046875 -11.34375 L 10.671875 -11.34375 L 11.59375 -10.171875 L 11.109375 -7.921875 L 9.578125 -7.921875 L 9.921875 -9.484375 L 9.515625 -9.984375 L 4.640625 -9.984375 L 4.03125 -9.484375 L 2.421875 -1.859375 L 2.796875 -1.359375 L 7.6875 -1.359375 L 8.296875 -1.859375 L 9.015625 -5.203125 L 5.890625 -5.203125 L 6.171875 -6.546875 L 10.828125 -6.546875 L 9.6875 -1.1875 L 8.28125 0 Z M 1.65625 0 "/></g></g></g><g fill="#ffffff" fill-opacity="1"><g transform="translate(63.716331, 20.1544)"><g><path d="M 1.65625 0 L 0.734375 -1.1875 L 2.640625 -10.171875 L 4.046875 -11.34375 L 10.671875 -11.34375 L 11.59375 -10.171875 L 9.6875 -1.1875 L 8.28125 0 Z M 2.421875 -1.859375 L 2.796875 -1.359375 L 7.6875 -1.359375 L 8.296875 -1.859375 L 9.921875 -9.484375 L 9.515625 -9.984375 L 4.640625 -9.984375 L 4.03125 -9.484375 Z M 2.421875 -1.859375 "/></g></g></g><g fill="#ffffff" fill-opacity="1"><g transform="translate(76.208076, 20.1544)"><g/></g></g><g fill="#ffffff" fill-opacity="1"><g transform="translate(81.652103, 20.1544)"><g><path d="M 8.25 0 L 7.03125 -1.546875 L 5.171875 0 L 2.625 0 L 1.140625 -1.875 L 3.140625 -11.34375 L 4.6875 -11.34375 L 2.8125 -2.578125 L 3.78125 -1.359375 L 4.984375 -1.359375 L 6.46875 -2.578125 L 8.328125 -11.34375 L 9.875 -11.34375 L 8 -2.578125 L 8.953125 -1.359375 L 10.1875 -1.359375 L 11.671875 -2.578125 L 13.53125 -11.34375 L 15.0625 -11.34375 L 13.0625 -1.875 L 10.796875 0 Z M 8.25 0 "/></g></g></g><g fill="#ffffff" fill-opacity="1"><g transform="translate(97.627204, 20.1544)"><g><path d="M 0.75 0 L 3.140625 -11.34375 L 11.3125 -11.34375 L 11.015625 -9.984375 L 4.390625 -9.984375 L 3.625 -6.359375 L 8.640625 -6.359375 L 8.34375 -4.984375 L 3.34375 -4.984375 L 2.5625 -1.359375 L 9.1875 -1.359375 L 8.90625 0 Z M 0.75 0 "/></g></g></g><g fill="#ffffff" fill-opacity="1"><g transform="translate(109.098247, 20.1544)"><g><path d="M 0.75 0 L 3.140625 -11.34375 L 4.6875 -11.34375 L 2.5625 -1.359375 L 9.1875 -1.359375 L 8.90625 0 Z M 0.75 0 "/></g></g></g><g fill="#ffffff" fill-opacity="1"><g transform="translate(119.953622, 20.1544)"><g><path d="M 0.75 0 L 3.140625 -11.34375 L 11.3125 -11.34375 L 11.015625 -9.984375 L 4.390625 -9.984375 L 3.453125 -5.546875 L 8.453125 -5.546875 L 8.171875 -4.1875 L 3.15625 -4.1875 L 2.28125 0 Z M 0.75 0 "/></g></g></g><g fill="#ffffff" fill-opacity="1"><g transform="translate(130.808996, 20.1544)"><g><path d="M 0.75 0 L 2.90625 -10.171875 L 4.3125 -11.34375 L 10.9375 -11.34375 L 11.875 -10.171875 L 9.71875 0 L 8.1875 0 L 9 -3.828125 L 3.09375 -3.828125 L 2.28125 0 Z M 3.390625 -5.1875 L 9.28125 -5.1875 L 10.1875 -9.484375 L 9.765625 -9.984375 L 4.890625 -9.984375 L 4.296875 -9.484375 Z M 3.390625 -5.1875 "/></g></g></g><g fill="#ffffff" fill-opacity="1"><g transform="translate(143.819193, 20.1544)"><g><path d="M 0.75 0 L 3.140625 -11.34375 L 10.9375 -11.34375 L 11.875 -10.171875 L 10.984375 -5.96875 L 9.625 -4.84375 L 10.5 -3.703125 L 9.71875 0 L 8.1875 0 L 8.90625 -3.453125 L 8.34375 -4.140625 L 3.15625 -4.140625 L 2.28125 0 Z M 3.453125 -5.515625 L 8.640625 -5.515625 L 9.5 -6.21875 L 10.1875 -9.484375 L 9.765625 -9.984375 L 4.390625 -9.984375 Z M 3.453125 -5.515625 "/></g></g></g><g fill="#ffffff" fill-opacity="1"><g transform="translate(156.732182, 20.1544)"><g><path d="M 0.75 0 L 3.140625 -11.34375 L 11.3125 -11.34375 L 11.015625 -9.984375 L 4.390625 -9.984375 L 3.625 -6.359375 L 8.640625 -6.359375 L 8.34375 -4.984375 L 3.34375 -4.984375 L 2.5625 -1.359375 L 9.1875 -1.359375 L 8.90625 0 Z M 0.75 0 "/></g></g></g><g clip-path="url(#0df119ad94)"><path fill="#1691cf" d="M 13.179688 5.503906 C 13.179688 4.644531 13.863281 3.949219 14.707031 3.949219 C 15.550781 3.949219 16.234375 4.644531 16.234375 5.503906 C 16.234375 6.359375 15.550781 7.054688 14.707031 7.054688 C 13.863281 7.054688 13.179688 6.359375 13.179688 5.503906 Z M 14.707031 9.058594 L 10.300781 4.464844 C 9.871094 4.027344 9.175781 4.027344 8.75 4.464844 C 8.320312 4.898438 8.320312 5.605469 8.75 6.042969 L 14.707031 12.214844 L 16.324219 10.523438 L 17.550781 6.050781 Z M 14.707031 9.058594 " fill-opacity="1" fill-rule="nonzero"/></g><g clip-path="url(#72a69e4131)"><path fill="#e89d00" d="M 22.699219 11.085938 C 21.96875 11.515625 21.03125 11.261719 20.613281 10.519531 C 20.191406 9.777344 20.441406 8.828125 21.171875 8.398438 C 21.902344 7.96875 22.835938 8.222656 23.257812 8.964844 C 23.679688 9.707031 23.429688 10.65625 22.699219 11.085938 Z M 20.617188 5.347656 C 20.773438 4.75 20.425781 4.140625 19.839844 3.980469 C 19.253906 3.820312 18.652344 4.171875 18.496094 4.769531 L 16.214844 13.097656 L 18.460938 13.679688 L 22.886719 12.519531 L 18.902344 11.519531 Z M 20.617188 5.347656 " fill-opacity="1" fill-rule="nonzero"/></g><g clip-path="url(#887f05e48b)"><path fill="#66ad22" d="M 23.257812 18.996094 C 22.835938 19.738281 21.902344 19.996094 21.171875 19.566406 C 20.441406 19.136719 20.191406 18.1875 20.609375 17.445312 C 21.03125 16.703125 21.96875 16.449219 22.695312 16.878906 C 23.429688 17.304688 23.679688 18.253906 23.257812 18.996094 Z M 25.796875 13.496094 C 25.640625 12.902344 25.039062 12.550781 24.453125 12.707031 L 16.214844 14.867188 L 16.84375 17.136719 L 20.042969 20.449219 L 18.902344 16.445312 L 25.023438 14.863281 C 25.605469 14.703125 25.953125 14.09375 25.796875 13.496094 Z M 25.796875 13.496094 " fill-opacity="1" fill-rule="nonzero"/></g><g clip-path="url(#50c8b59b72)"><path fill="#e85900" d="M 16.234375 22.460938 C 16.234375 23.320312 15.550781 24.011719 14.707031 24.011719 C 13.863281 24.011719 13.179688 23.320312 13.179688 22.460938 C 13.179688 21.605469 13.863281 20.910156 14.707031 20.910156 C 15.550781 20.910156 16.234375 21.605469 16.234375 22.460938 Z M 20.664062 21.921875 L 14.707031 15.75 L 13.085938 17.4375 L 11.863281 21.910156 L 14.707031 18.90625 L 19.113281 23.5 C 19.542969 23.933594 20.238281 23.933594 20.664062 23.5 C 21.09375 23.0625 21.09375 22.359375 20.664062 21.921875 Z M 20.664062 21.921875 " fill-opacity="1" fill-rule="nonzero"/></g><g clip-path="url(#4f9bd2e422)"><path fill="#bf04a0" d="M 8.242188 19.566406 C 7.511719 19.992188 6.578125 19.738281 6.15625 18.996094 C 5.734375 18.253906 5.984375 17.304688 6.714844 16.878906 C 7.445312 16.449219 8.382812 16.703125 8.800781 17.445312 C 9.222656 18.1875 8.972656 19.136719 8.242188 19.566406 Z M 10.949219 14.285156 L 6.527344 15.445312 L 10.511719 16.445312 L 8.796875 22.617188 C 8.640625 23.214844 8.988281 23.824219 9.574219 23.984375 C 10.160156 24.144531 10.761719 23.789062 10.917969 23.195312 L 13.199219 14.867188 Z M 10.949219 14.285156 " fill-opacity="1" fill-rule="nonzero"/></g><g clip-path="url(#abca6b2ba5)"><path fill="#f20574" d="M 6.15625 8.964844 C 6.578125 8.222656 7.511719 7.96875 8.242188 8.398438 C 8.972656 8.828125 9.222656 9.777344 8.800781 10.519531 C 8.382812 11.261719 7.445312 11.515625 6.714844 11.085938 C 5.984375 10.65625 5.734375 9.707031 6.15625 8.964844 Z M 12.570312 10.828125 L 9.371094 7.515625 L 10.511719 11.519531 L 4.390625 13.101562 C 3.808594 13.261719 3.460938 13.871094 3.617188 14.464844 C 3.773438 15.0625 4.375 15.414062 4.960938 15.253906 L 13.199219 13.097656 Z M 12.570312 10.828125 " fill-opacity="1" fill-rule="nonzero"/></g></svg>